<svg width="20" height="20" viewBox="0 0 20 20" fill="none" xmlns="http://www.w3.org/2000/svg">
<path fill-rule="evenodd" clip-rule="evenodd" d="M8.33335 13.3333C8.33335 13.7917 7.95835 14.1667 7.50002 14.1667C7.04169 14.1667 6.66669 13.7917 6.66669 13.3333V10C6.66669 9.54167 7.04169 9.16667 7.50002 9.16667C7.95835 9.16667 8.33335 9.54167 8.33335 10V13.3333ZM13.3334 13.3333C13.3334 13.7917 12.9584 14.1667 12.5 14.1667C12.0417 14.1667 11.6667 13.7917 11.6667 13.3333V10C11.6667 9.54167 12.0417 9.16667 12.5 9.16667C12.9584 9.16667 13.3334 9.54167 13.3334 10V13.3333ZM15 15.8333C15 16.2925 14.6267 16.6667 14.1667 16.6667H5.83335C5.37335 16.6667 5.00002 16.2925 5.00002 15.8333V6.66667H15V15.8333ZM8.33335 3.60667C8.33335 3.47751 8.51169 3.33334 8.75002 3.33334H11.25C11.4884 3.33334 11.6667 3.47751 11.6667 3.60667V5.00001H8.33335V3.60667ZM17.5 5.00001H16.6667H13.3334V3.60667C13.3334 2.53667 12.3992 1.66667 11.25 1.66667H8.75002C7.60085 1.66667 6.66669 2.53667 6.66669 3.60667V5.00001H3.33335H2.50002C2.04169 5.00001 1.66669 5.37501 1.66669 5.83334C1.66669 6.29167 2.04169 6.66667 2.50002 6.66667H3.33335V15.8333C3.33335 17.2117 4.45502 18.3333 5.83335 18.3333H14.1667C15.545 18.3333 16.6667 17.2117 16.6667 15.8333V6.66667H17.5C17.9584 6.66667 18.3334 6.29167 18.3334 5.83334C18.3334 5.37501 17.9584 5.00001 17.5 5.00001Z" fill="#C5CEE0"/>
<mask id="mask0_212_384" style="mask-type:alpha" maskUnits="userSpaceOnUse" x="1" y="1" width="18" height="18">
<path fill-rule="evenodd" clip-rule="evenodd" d="M8.33335 13.3333C8.33335 13.7917 7.95835 14.1667 7.50002 14.1667C7.04169 14.1667 6.66669 13.7917 6.66669 13.3333V10C6.66669 9.54167 7.04169 9.16667 7.50002 9.16667C7.95835 9.16667 8.33335 9.54167 8.33335 10V13.3333ZM13.3334 13.3333C13.3334 13.7917 12.9584 14.1667 12.5 14.1667C12.0417 14.1667 11.6667 13.7917 11.6667 13.3333V10C11.6667 9.54167 12.0417 9.16667 12.5 9.16667C12.9584 9.16667 13.3334 9.54167 13.3334 10V13.3333ZM15 15.8333C15 16.2925 14.6267 16.6667 14.1667 16.6667H5.83335C5.37335 16.6667 5.00002 16.2925 5.00002 15.8333V6.66667H15V15.8333ZM8.33335 3.60667C8.33335 3.47751 8.51169 3.33334 8.75002 3.33334H11.25C11.4884 3.33334 11.6667 3.47751 11.6667 3.60667V5.00001H8.33335V3.60667ZM17.5 5.00001H16.6667H13.3334V3.60667C13.3334 2.53667 12.3992 1.66667 11.25 1.66667H8.75002C7.60085 1.66667 6.66669 2.53667 6.66669 3.60667V5.00001H3.33335H2.50002C2.04169 5.00001 1.66669 5.37501 1.66669 5.83334C1.66669 6.29167 2.04169 6.66667 2.50002 6.66667H3.33335V15.8333C3.33335 17.2117 4.45502 18.3333 5.83335 18.3333H14.1667C15.545 18.3333 16.6667 17.2117 16.6667 15.8333V6.66667H17.5C17.9584 6.66667 18.3334 6.29167 18.3334 5.83334C18.3334 5.37501 17.9584 5.00001 17.5 5.00001Z" fill="white"/>
</mask>
<g mask="url(#mask0_212_384)">
</g>
</svg>
